<?xml version="1.0" encoding="UTF-8"?>
<svg id="Ebene_1" xmlns="http://www.w3.org/2000/svg" version="1.1" viewBox="0 0 724.09 685.28">
  <!-- Generator: Adobe Illustrator 30.0.0, SVG Export Plug-In . SVG Version: 2.1.1 Build 123)  -->
  <defs>
    <style>
      .st0 {
        fill: none;
        stroke: #000;
        stroke-linecap: round;
        stroke-linejoin: round;
        stroke-width: 2px;
      }
    </style>
  </defs>
  <path class="st0" d="M33.8,634.29c-5,0-9.2,1.8-12.8,5.3-3.6,3.6-5.3,7.8-5.2,12.8-.1,4.9,1.6,9.2,5.2,12.7,3.6,3.6,7.8,5.3,12.8,5.3s9.2-1.7,12.8-5.3,5.3-7.8,5.3-12.7-1.8-9.2-5.3-12.8c-3.6-3.5-7.8-5.3-12.8-5.3"/>
  <path class="st0" d="M691.1,634.99c-5,0-9.2,1.7-12.8,5.3s-5.3,7.8-5.2,12.7c-.1,5,1.7,9.2,5.2,12.8,3.6,3.6,7.8,5.3,12.8,5.3s9.2-1.7,12.8-5.3c3.5-3.6,5.3-7.8,5.3-12.8s-1.8-9.2-5.3-12.7-7.8-5.3-12.8-5.3"/>
  <path class="st0" d="M312.1,24.19C160.8,192.69,57.4,399.99,2.2,645.99l-.3,1.5c-.4,3.3-.7,6.2-.9,8.7,1,18.8,12,28.1,33,27.7,91.7-18.6,200.9-30.1,327.4-34.2,104.3,1.1,211.3,12.1,321.1,32.7,8.2,2.6,16,2.5,23.5-.2,20.7-9.2,22.6-36.5,5.7-82-18.6-75.3-46.2-156.1-83-242.4-19.2-44.5-44.4-92.4-75.4-143.7-40.2-65.7-86.5-128.9-139-189.7-32.9-31.1-66.9-31.2-102.2-.2"/>
</svg>